<?xml version="1.0" encoding="utf-8"?>
<!-- Generator: Adobe Illustrator 19.2.0, SVG Export Plug-In . SVG Version: 6.00 Build 0)  -->
<svg version="1.1" id="Layer_1" xmlns="http://www.w3.org/2000/svg" xmlns:xlink="http://www.w3.org/1999/xlink" x="0px" y="0px"
	 viewBox="0 0 75 75" style="enable-background:new 0 0 75 75;" xml:space="preserve">
<style type="text/css">
	.st0{fill:#010101;}
</style>
<rect x="54" y="30.9" transform="matrix(0.7071 -0.7071 0.7071 0.7071 -23.0171 55.5578)" class="st0" width="3.2" height="49.4"/>
<path class="st0" d="M23.4,45.9c-5.8,0-11.6-2.2-16-6.6c-8.8-8.8-8.8-23.1,0-31.9c4.3-4.3,9.9-6.6,16-6.6c6,0,11.7,2.3,16,6.6l0,0
	l0,0c8.8,8.8,8.8,23.1,0,31.9C34.9,43.7,29.1,45.9,23.4,45.9z M23.4,3.7c-5.2,0-10.2,2-13.9,5.8c-7.7,7.7-7.7,20.1,0,27.8
	s20.1,7.7,27.8,0s7.7-20.1,0-27.8l0,0C33.5,5.8,28.6,3.7,23.4,3.7z"/>
</svg>
